<mxfile host="app.diagrams.net" modified="2024-04-16T00:56:47.477Z" agent="Mozilla/5.0 (Windows NT 10.0; Win64; x64) AppleWebKit/537.36 (KHTML, like Gecko) Chrome/109.0.0.0 Safari/537.36 SLBrowser/9.0.3.1311 SLBChan/33" etag="2Bl7TuzsS9OG44TyI9n3" version="24.2.5" type="github">
  <diagram name="第 1 页" id="NYdWt73HonkPd0I-psLN">
    <mxGraphModel dx="1290" dy="541" grid="1" gridSize="10" guides="1" tooltips="1" connect="1" arrows="1" fold="1" page="1" pageScale="1" pageWidth="827" pageHeight="1169" math="0" shadow="0">
      <root>
        <mxCell id="0" />
        <mxCell id="1" parent="0" />
        <mxCell id="AzY2mKM7OKnq5ZkE7Jx8-1" value="S" style="ellipse;whiteSpace=wrap;html=1;aspect=fixed;" vertex="1" parent="1">
          <mxGeometry x="120" y="240" width="60" height="60" as="geometry" />
        </mxCell>
        <mxCell id="AzY2mKM7OKnq5ZkE7Jx8-2" value="A" style="ellipse;whiteSpace=wrap;html=1;aspect=fixed;" vertex="1" parent="1">
          <mxGeometry x="250" y="240" width="60" height="60" as="geometry" />
        </mxCell>
        <mxCell id="AzY2mKM7OKnq5ZkE7Jx8-3" value="C" style="ellipse;whiteSpace=wrap;html=1;aspect=fixed;" vertex="1" parent="1">
          <mxGeometry x="400" y="460" width="60" height="60" as="geometry" />
        </mxCell>
        <mxCell id="AzY2mKM7OKnq5ZkE7Jx8-4" value="B" style="ellipse;whiteSpace=wrap;html=1;aspect=fixed;" vertex="1" parent="1">
          <mxGeometry x="400" y="350" width="60" height="60" as="geometry" />
        </mxCell>
        <mxCell id="AzY2mKM7OKnq5ZkE7Jx8-5" value="" style="endArrow=classic;html=1;rounded=0;exitX=1;exitY=0.5;exitDx=0;exitDy=0;entryX=0;entryY=0.5;entryDx=0;entryDy=0;" edge="1" parent="1" source="AzY2mKM7OKnq5ZkE7Jx8-1" target="AzY2mKM7OKnq5ZkE7Jx8-2">
          <mxGeometry width="50" height="50" relative="1" as="geometry">
            <mxPoint x="390" y="310" as="sourcePoint" />
            <mxPoint x="220" y="270" as="targetPoint" />
          </mxGeometry>
        </mxCell>
        <mxCell id="AzY2mKM7OKnq5ZkE7Jx8-6" value="" style="curved=1;endArrow=classic;html=1;rounded=0;exitX=1;exitY=0;exitDx=0;exitDy=0;" edge="1" parent="1" source="AzY2mKM7OKnq5ZkE7Jx8-2">
          <mxGeometry width="50" height="50" relative="1" as="geometry">
            <mxPoint x="280" y="180" as="sourcePoint" />
            <mxPoint x="250" y="249" as="targetPoint" />
            <Array as="points">
              <mxPoint x="290" y="160" />
            </Array>
          </mxGeometry>
        </mxCell>
        <mxCell id="AzY2mKM7OKnq5ZkE7Jx8-8" value="空格" style="text;html=1;align=center;verticalAlign=middle;resizable=0;points=[];autosize=1;strokeColor=none;fillColor=none;" vertex="1" parent="1">
          <mxGeometry x="265" y="160" width="50" height="30" as="geometry" />
        </mxCell>
        <mxCell id="AzY2mKM7OKnq5ZkE7Jx8-19" value="" style="endArrow=classic;html=1;rounded=0;exitX=0.5;exitY=1;exitDx=0;exitDy=0;entryX=0;entryY=0.5;entryDx=0;entryDy=0;" edge="1" parent="1" source="AzY2mKM7OKnq5ZkE7Jx8-2" target="AzY2mKM7OKnq5ZkE7Jx8-3">
          <mxGeometry width="50" height="50" relative="1" as="geometry">
            <mxPoint x="160" y="430" as="sourcePoint" />
            <mxPoint x="280" y="540" as="targetPoint" />
            <Array as="points">
              <mxPoint x="280" y="400" />
              <mxPoint x="280" y="490" />
            </Array>
          </mxGeometry>
        </mxCell>
        <mxCell id="AzY2mKM7OKnq5ZkE7Jx8-20" value="" style="endArrow=classic;html=1;rounded=0;" edge="1" parent="1" target="AzY2mKM7OKnq5ZkE7Jx8-4">
          <mxGeometry width="50" height="50" relative="1" as="geometry">
            <mxPoint x="280" y="380" as="sourcePoint" />
            <mxPoint x="440" y="260" as="targetPoint" />
          </mxGeometry>
        </mxCell>
        <mxCell id="AzY2mKM7OKnq5ZkE7Jx8-21" value="&lt;font style=&quot;font-size: 14px;&quot;&gt;if/else/while...&lt;/font&gt;" style="text;html=1;align=center;verticalAlign=middle;resizable=0;points=[];autosize=1;strokeColor=none;fillColor=none;" vertex="1" parent="1">
          <mxGeometry x="280" y="460" width="110" height="30" as="geometry" />
        </mxCell>
      </root>
    </mxGraphModel>
  </diagram>
</mxfile>
